<?xml version="1.0" standalone="no"?>
<!DOCTYPE svg PUBLIC "-//W3C//DTD SVG 20010904//EN"
 "http://www.w3.org/TR/2001/REC-SVG-20010904/DTD/svg10.dtd">
<svg version="1.0" xmlns="http://www.w3.org/2000/svg"
 width="600.000000pt" height="166.000000pt" viewBox="0 0 600.000000 166.000000"
 preserveAspectRatio="xMidYMid meet">

<g transform="translate(0.000000,166.000000) scale(0.100000,-0.100000)"
fill="#000000" stroke="none">
<path d="M1167 1549 c-77 -12 -131 -45 -237 -146 l-101 -96 -93 91 c-113 111
-176 144 -281 150 -186 10 -347 -141 -347 -326 0 -112 27 -167 144 -288 l100
-104 -92 -97 c-120 -125 -145 -176 -145 -293 0 -71 4 -94 27 -142 32 -69 92
-129 166 -165 47 -23 70 -28 132 -28 109 1 165 30 290 151 l100 97 98 -95
c130 -125 168 -143 292 -143 79 0 103 4 143 23 66 33 128 97 163 167 24 50 29
72 29 135 -1 108 -28 162 -150 288 l-97 102 100 104 c118 123 142 172 142 289
0 201 -183 357 -383 326z m162 -124 c42 -21 98 -89 110 -132 16 -58 13 -123
-9 -172 -11 -24 -59 -84 -107 -133 l-87 -88 -30 28 -31 29 -105 -27 c-112 -29
-112 -28 1 -50 33 -6 64 -19 75 -31 17 -18 16 -20 -5 -43 -15 -16 -38 -26 -74
-30 -109 -15 -108 -18 3 -46 l105 -27 26 23 c14 13 30 24 36 24 6 0 52 -43
102 -95 76 -80 93 -104 106 -150 32 -108 -18 -220 -119 -270 -59 -29 -137 -33
-194 -10 -31 14 -210 174 -221 198 -2 5 8 21 21 35 l25 27 -27 105 c-28 111
-31 112 -46 3 -4 -36 -14 -59 -30 -74 -23 -21 -25 -21 -43 -5 -10 9 -24 44
-31 79 -21 108 -22 108 -50 -3 l-27 -105 29 -31 28 -30 -92 -91 c-127 -123
-174 -144 -278 -122 -42 9 -63 21 -105 63 -61 59 -80 111 -72 192 7 72 23 97
126 199 l91 89 27 -26 28 -26 105 26 c111 26 113 32 15 46 -120 18 -126 81
-10 106 106 22 106 21 10 46 -113 30 -123 30 -155 -1 l-27 -25 -92 95 c-104
107 -121 139 -121 222 1 135 102 233 239 233 70 -1 121 -30 221 -126 l91 -87
-26 -27 c-31 -32 -31 -42 -1 -155 25 -96 24 -96 46 10 12 52 33 85 56 85 19 0
41 -38 48 -85 17 -106 18 -106 46 5 l27 105 -26 28 -25 27 89 91 c50 50 104
98 120 107 60 32 149 31 214 -3z"/>
<path d="M2447 1146 c-55 -15 -85 -39 -104 -84 -16 -38 -9 -78 21 -110 28 -31
68 -47 154 -62 106 -18 150 -62 103 -104 -53 -48 -156 -44 -225 9 -42 32 -45
33 -60 16 -25 -28 -19 -49 22 -75 111 -73 293 -51 337 40 48 101 -15 160 -204
189 -41 7 -91 41 -91 63 0 22 38 54 74 62 61 13 134 -6 166 -45 12 -14 14 -14
31 1 11 10 19 23 19 30 0 23 -59 62 -110 73 -62 13 -72 13 -133 -3z"/>
<path d="M2880 925 l0 -225 35 0 35 0 0 85 0 85 96 0 c112 0 153 15 185 67 42
68 19 157 -51 194 -29 16 -57 19 -167 19 l-133 0 0 -225z m278 139 c16 -11 22
-25 22 -55 0 -58 -38 -79 -147 -79 l-83 0 0 75 0 75 93 0 c68 0 99 -4 115 -16z"/>
<path d="M3427 1143 c-4 -3 -7 -105 -7 -225 l0 -218 35 0 35 0 0 68 1 67 56
45 c53 43 56 43 70 25 7 -11 46 -61 86 -112 71 -91 73 -92 116 -93 33 0 41 3
34 13 -18 23 -176 222 -189 237 -12 14 1 28 94 105 l107 90 -43 3 c-42 3 -47
0 -178 -110 -74 -62 -139 -114 -144 -116 -6 -2 -10 43 -10 112 l0 116 -28 0
c-16 0 -32 -3 -35 -7z"/>
<path d="M4300 1003 c0 -168 11 -205 73 -260 79 -69 217 -63 292 14 47 49 55
84 55 251 l0 142 -30 0 -30 0 0 -137 c0 -151 -10 -188 -61 -226 -63 -46 -169
-27 -209 38 -18 29 -20 49 -20 179 l0 146 -35 0 -35 0 0 -147z"/>
<path d="M4917 1143 c-4 -3 -7 -105 -7 -225 l0 -218 35 0 35 0 0 68 0 67 50
40 c28 22 54 41 58 42 4 1 45 -47 92 -107 l85 -110 44 0 c41 0 43 1 29 18 -14
17 -173 216 -190 238 -5 7 29 42 97 98 58 48 105 89 105 92 0 2 -19 4 -42 4
-40 0 -52 -8 -180 -115 -75 -63 -139 -115 -142 -115 -3 0 -6 52 -6 115 l0 115
-28 0 c-16 0 -32 -3 -35 -7z"/>
<path d="M5482 1118 l3 -33 78 -3 77 -3 0 -189 0 -190 30 0 30 0 0 190 0 190
80 0 80 0 0 35 0 35 -191 0 -190 0 3 -32z"/>
</g>
</svg>
